<?xml version="1.0" encoding="UTF-8" standalone="no"?>
<!-- <svg version="1.1" width="650.0px" height="560.0px" viewBox="0 0 650 560"  -->

<svg
   xmlns:dc="http://purl.org/dc/elements/1.1/"
   xmlns:cc="http://creativecommons.org/ns#"
   xmlns:rdf="http://www.w3.org/1999/02/22-rdf-syntax-ns#"
   xmlns:svg="http://www.w3.org/2000/svg"
   xmlns="http://www.w3.org/2000/svg"
   xmlns:sodipodi="http://sodipodi.sourceforge.net/DTD/sodipodi-0.dtd"
   xmlns:inkscape="http://www.inkscape.org/namespaces/inkscape"
   version="1.1"
   width="742.40289"
   height="478.40182"
   viewBox="0 0 618.6666 398.6666"
   id="svg71"
   sodipodi:docname="waveforms.svg"
   inkscape:version="0.92.4 (5da689c313, 2019-01-14)">
  <metadata
     id="metadata77">
    <rdf:RDF>
      <cc:Work
         rdf:about="">
        <dc:format>image/svg+xml</dc:format>
        <dc:type
           rdf:resource="http://purl.org/dc/dcmitype/StillImage" />
        <dc:title>
    Waveform examples
  </dc:title>
      </cc:Work>
    </rdf:RDF>
  </metadata>
  <defs
     id="defs75" />
  <sodipodi:namedview
     pagecolor="#ffffff"
     bordercolor="#666666"
     borderopacity="1"
     objecttolerance="10"
     gridtolerance="10"
     guidetolerance="10"
     inkscape:pageopacity="0"
     inkscape:pageshadow="2"
     inkscape:window-width="1366"
     inkscape:window-height="704"
     id="namedview73"
     showgrid="false"
     fit-margin-top="10"
     fit-margin-left="10"
     fit-margin-right="10"
     fit-margin-bottom="10"
     inkscape:zoom="0.35119048"
     inkscape:cx="372.62373"
     inkscape:cy="161.20184"
     inkscape:window-x="0"
     inkscape:window-y="27"
     inkscape:window-maximized="1"
     inkscape:current-layer="svg71" />
  <!-- vim:ai:sw=2:so=2:et:nowrap: -->
  <title
     id="title2">
    Waveform examples
  </title>
  <desc
     id="desc4">
      Examples of some waveforms.
  </desc>
  <g
     style="stroke:#440060"
     id="g12"
     transform="translate(9.3333,9.3333)">
    <rect
       style="fill:none;stroke-width:2"
       y="0"
       x="0"
       id="rect6"
       height="110"
       width="600" />
    <path
       style="fill:none;stroke-width:1;stroke-dasharray:1, 3"
       inkscape:connector-curvature="0"
       id="path8"
       d="M 100,0 V 110 M 200,0 V 110 M 300,0 V 110 M 400,0 V 110 M 500,0 v 110" />
    <path
       style="fill:none;stroke-width:1;stroke-dasharray:1, 3"
       inkscape:connector-curvature="0"
       id="path10"
       d="M 0,15 H 600 M 0,55 H 600 M 0,95 h 600" />
  </g>
  <g
     style="stroke:#440060"
     id="g20"
     transform="translate(9.3333,144.3333)">
    <rect
       style="fill:none;stroke-width:2"
       y="0"
       x="0"
       id="rect14"
       height="110"
       width="600" />
    <path
       style="fill:none;stroke-width:1;stroke-dasharray:1, 3"
       inkscape:connector-curvature="0"
       id="path16"
       d="M 100,0 V 110 M 200,0 V 110 M 300,0 V 110 M 400,0 V 110 M 500,0 v 110" />
    <path
       style="fill:none;stroke-width:1;stroke-dasharray:1, 3"
       inkscape:connector-curvature="0"
       id="path18"
       d="M 0,15 H 600 M 0,55 H 600 M 0,95 h 600" />
  </g>
  <g
     style="stroke:#440060"
     id="g28"
     transform="translate(9.3333,279.3333)">
    <rect
       style="fill:none;stroke-width:2"
       y="0"
       x="0"
       id="rect22"
       height="110"
       width="600" />
    <path
       style="fill:none;stroke-width:1;stroke-dasharray:1, 3"
       inkscape:connector-curvature="0"
       id="path24"
       d="M 100,0 V 110 M 200,0 V 110 M 300,0 V 110 M 400,0 V 110 M 500,0 v 110" />
    <path
       style="fill:none;stroke-width:1;stroke-dasharray:1, 3"
       inkscape:connector-curvature="0"
       id="path26"
       d="M 0,15 H 600 M 0,55 H 600 M 0,95 h 600" />
  </g>
  <g
     style="fill:none"
     id="g45"
     transform="translate(9.3333,9.3333)">
    <clipPath
       id="cp2">
      <rect
         style="clip-rule:nonzero"
         y="0"
         x="0"
         id="rect40"
         height="110"
         width="600" />
    </clipPath>
    <path
       style="stroke:#e04040;stroke-width:2"
       inkscape:connector-curvature="0"
       id="path43"
       d="m -50,95 c 35,0 65,-80 100,-80 35,0 65,80 100,80 35,0 65,-80 100,-80 35,0 65,80 100,80 35,0 65,-80 100,-80 35,0 65,80 100,80 35,0 65,-80 100,-80"
       clip-path="url(#cp2)" />
  </g>
  <g
     style="fill:none"
     id="g49"
     transform="translate(9.3333,144.3333)">
    <path
       style="stroke:#00a040;stroke-width:2"
       inkscape:connector-curvature="0"
       id="path47"
       d="M 0,15 H 100 V 95 H 200 V 15 H 300 V 95 H 400 V 15 h 100 v 80 h 100" />
  </g>
  <g
     style="fill:none"
     id="g53"
     transform="translate(9.3333,279.3333)">
    <path
       style="stroke:#4040f0;stroke-width:2"
       inkscape:connector-curvature="0"
       id="path51"
       d="M 0,55 50,15 150,95 250,15 350,95 450,15 550,95 600,55" />
  </g>
  <text
     style="font-size:18.66666603px;font-family:Times;text-anchor:middle;fill:#000000;stroke:none"
     id="text61"
     y="49.333302"
     x="559.33331">Sine</text>
  <text
     style="font-size:18.66666603px;font-family:Times;text-anchor:middle;fill:#000000;stroke:none"
     id="text63"
     y="184.3333"
     x="559.33331">Square</text>
  <text
     style="font-size:18.66666603px;font-family:Times;text-anchor:middle;fill:#000000;stroke:none"
     id="text65"
     y="319.33331"
     x="559.33331">Triangle</text>
</svg>
